<svg xmlns="http://www.w3.org/2000/svg" xmlns:xlink="http://www.w3.org/1999/xlink" width="300" zoomAndPan="magnify" viewBox="0 0 224.87999 225" height="300" preserveAspectRatio="xMidYMid meet" version="1.0"><defs><g/><clipPath id="2cf03e4150"><path d="M 3 48 L 220 48 L 220 176.839844 L 3 176.839844 Z M 3 48 " clip-rule="nonzero"/></clipPath></defs><g clip-path="url(#2cf03e4150)"><path fill="#57b6d4" d="M 194.207031 52.636719 C 178.867188 48.253906 160.238281 51.539062 144.351562 50.445312 C 108.195312 47.15625 72.035156 49.898438 35.875 49.898438 L 34.78125 50.445312 C 3.550781 50.445312 3.003906 78.382812 4.101562 104.132812 C 4.648438 115.09375 4.648438 129.335938 11.773438 138.648438 C 17.25 145.773438 23.824219 145.222656 32.042969 146.320312 C 68.746094 151.796875 105.453125 150.703125 142.160156 147.414062 C 150.253906 146.308594 158.601562 145.949219 166.855469 145.828125 C 171.820312 154.785156 167.757812 169.175781 164.074219 177 C 172.714844 169.863281 179.292969 157.828125 182.222656 145.847656 C 191.042969 146.199219 203.335938 147.441406 210.09375 143.582031 C 217.214844 139.195312 218.859375 128.238281 219.40625 120.023438 C 220.503906 98.105469 220.503906 59.210938 194.207031 52.636719 " fill-opacity="1" fill-rule="nonzero"/></g><g fill="#ffffff" fill-opacity="1"><g transform="translate(20.772284, 90.222396)"><g><path d="M 16.34375 -6.390625 L 20.921875 -6.390625 L 20.921875 -8.9375 L 16.34375 -8.9375 L 16.34375 -12.796875 L 13.5625 -12.796875 L 13.5625 -8.9375 L 8.859375 -8.9375 L 8.859375 -6.390625 L 13.5625 -6.390625 L 13.5625 -1.109375 L 7.953125 -1.109375 L 7.953125 1.4375 L 21.828125 1.4375 L 21.828125 -1.109375 L 16.34375 -1.109375 Z M 10.609375 -16.421875 C 10.9375 -17.265625 11.234375 -18.09375 11.5 -18.953125 L 8.59375 -19.65625 C 8.3125 -18.578125 7.96875 -17.515625 7.578125 -16.421875 L 1.328125 -16.421875 L 1.328125 -13.78125 L 6.34375 -13.78125 C 4.953125 -11.125 3.015625 -8.6875 0.578125 -7.109375 C 1.015625 -6.4375 1.640625 -5.1875 1.953125 -4.453125 C 2.6875 -4.953125 3.34375 -5.46875 3.984375 -6.078125 L 3.984375 2 L 6.796875 2 L 6.796875 -9.21875 C 7.859375 -10.640625 8.734375 -12.1875 9.5 -13.78125 L 21.890625 -13.78125 L 21.890625 -16.421875 Z M 10.609375 -16.421875 "/></g></g></g><g fill="#ffffff" fill-opacity="1"><g transform="translate(43.937377, 90.222396)"><g><path d="M 19.203125 -18.90625 L 3.6875 -18.90625 L 3.6875 -17.09375 L 16.5 -17.09375 L 16.5 -16.25 L 4.375 -16.25 L 4.375 -14.578125 L 16.5 -14.578125 L 16.5 -13.6875 L 3.5625 -13.6875 L 3.5625 -11.890625 L 19.203125 -11.890625 Z M 1.640625 -5.46875 C 4.140625 -5.625 7.625 -5.8125 10.953125 -6 L 10.984375 -7.96875 L 7.4375 -7.8125 L 7.4375 -9.21875 L 10.640625 -9.21875 L 10.640625 -11.125 L 1.828125 -11.125 L 1.828125 -9.21875 L 4.84375 -9.21875 L 4.84375 -7.6875 C 3.5625 -7.625 2.40625 -7.578125 1.453125 -7.546875 Z M 14.359375 -9.359375 L 18.265625 -9.359375 L 18.265625 -7.78125 L 14.359375 -7.78125 Z M 22.125 -4.9375 L 17.59375 -4.9375 L 17.59375 -6 L 21 -6 L 21 -11.125 L 11.8125 -11.125 L 11.8125 -6 L 14.875 -6 L 14.875 -4.9375 L 1.0625 -4.9375 L 1.0625 -2.671875 L 5.796875 -2.671875 L 4.953125 -1.96875 C 6.09375 -1.1875 7.5 0 8.109375 0.859375 L 10.109375 -0.859375 C 9.640625 -1.40625 8.875 -2.0625 8.0625 -2.671875 L 14.875 -2.671875 L 14.875 -0.765625 C 14.875 -0.46875 14.765625 -0.421875 14.390625 -0.390625 C 14.015625 -0.375 12.71875 -0.375 11.5625 -0.421875 C 11.90625 0.25 12.328125 1.28125 12.4375 2.015625 C 14.203125 2.015625 15.453125 2 16.375 1.625 C 17.328125 1.25 17.59375 0.609375 17.59375 -0.6875 L 17.59375 -2.671875 L 22.125 -2.671875 Z M 22.125 -4.9375 "/></g></g></g><g fill="#ffffff" fill-opacity="1"><g transform="translate(67.10247, 90.222396)"><g><path d="M 20.78125 -16.0625 C 20.109375 -16.96875 18.671875 -18.40625 17.6875 -19.390625 L 15.59375 -18.03125 C 16.59375 -16.96875 17.953125 -15.453125 18.5625 -14.5 Z M 8.921875 -9.875 L 6.53125 -9.296875 L 6.53125 -12.671875 L 9.015625 -12.671875 L 9.015625 -15.21875 L 6.53125 -15.21875 L 6.53125 -19.609375 L 3.828125 -19.609375 L 3.828125 -15.21875 L 0.953125 -15.21875 L 0.953125 -12.671875 L 3.828125 -12.671875 L 3.828125 -8.625 C 2.671875 -8.34375 1.546875 -8.09375 0.65625 -7.90625 L 1.359375 -5.28125 L 3.828125 -5.890625 L 3.828125 -1.09375 C 3.828125 -0.765625 3.703125 -0.65625 3.390625 -0.65625 C 3.078125 -0.65625 2.125 -0.65625 1.203125 -0.671875 C 1.546875 0.015625 1.90625 1.109375 2 1.828125 C 3.609375 1.828125 4.734375 1.765625 5.484375 1.328125 C 6.28125 0.921875 6.53125 0.25 6.53125 -1.09375 L 6.53125 -6.609375 C 7.46875 -6.859375 8.34375 -7.09375 9.25 -7.34375 Z M 18.890625 -11.234375 C 18.1875 -9.640625 17.1875 -8.046875 16.015625 -6.609375 C 15.671875 -8 15.390625 -9.609375 15.171875 -11.421875 L 22.15625 -12.125 L 21.890625 -14.6875 L 14.953125 -14.015625 C 14.828125 -15.75 14.734375 -17.59375 14.71875 -19.515625 L 11.890625 -19.515625 C 11.953125 -17.46875 12.046875 -15.546875 12.1875 -13.765625 L 9.265625 -13.484375 L 9.546875 -10.84375 L 12.421875 -11.140625 C 12.71875 -8.484375 13.140625 -6.15625 13.71875 -4.265625 C 12.078125 -2.828125 10.234375 -1.671875 8.25 -0.875 C 9.03125 -0.328125 9.96875 0.5625 10.46875 1.25 C 11.984375 0.5625 13.46875 -0.4375 14.8125 -1.59375 C 15.921875 0.4375 17.40625 1.625 19.421875 1.828125 C 20.71875 1.953125 21.96875 0.859375 22.5625 -3.421875 C 22.03125 -3.6875 20.8125 -4.421875 20.28125 -5.03125 C 20.109375 -2.546875 19.8125 -1.4375 19.28125 -1.484375 C 18.375 -1.625 17.609375 -2.390625 16.984375 -3.6875 C 18.71875 -5.5625 20.1875 -7.6875 21.15625 -9.875 Z M 18.890625 -11.234375 "/></g></g></g><g fill="#ffffff" fill-opacity="1"><g transform="translate(90.267563, 90.222396)"><g><path d="M 16.34375 -5.234375 L 16.34375 -1.578125 L 7.15625 -1.578125 L 7.15625 -5.234375 Z M 4.328125 2 L 7.15625 2 L 7.15625 0.96875 L 16.34375 0.96875 L 16.34375 1.90625 L 19.28125 1.90625 L 19.28125 -7.671875 L 4.328125 -7.671875 Z M 7.96875 -12.1875 C 9.34375 -13.1875 10.609375 -14.28125 11.796875 -15.5 C 13.15625 -14.15625 14.5 -13.09375 15.828125 -12.1875 Z M 11.796875 -19.75 C 9.359375 -16.125 4.984375 -13.328125 0.71875 -11.625 C 1.484375 -10.9375 2.296875 -9.890625 2.734375 -9.109375 C 3.78125 -9.59375 4.8125 -10.171875 5.84375 -10.796875 L 5.84375 -9.65625 L 17.421875 -9.65625 L 17.421875 -11.171875 C 18.515625 -10.546875 19.65625 -9.984375 20.765625 -9.453125 C 21.125 -10.3125 21.9375 -11.328125 22.65625 -11.984375 C 19.53125 -13.109375 16.453125 -14.6875 13.484375 -17.453125 C 13.734375 -17.765625 14 -18.125 14.25 -18.46875 Z M 11.796875 -19.75 "/></g></g></g><g fill="#ffffff" fill-opacity="1"><g transform="translate(113.432657, 90.222396)"><g><path d="M 12.96875 -14.28125 C 12.890625 -14.734375 12.65625 -15.34375 12.375 -15.890625 L 16.515625 -15.890625 C 16.359375 -15.359375 16.125 -14.78125 15.890625 -14.28125 Z M 18.953125 -4.46875 C 18.953125 -4.1875 18.859375 -4.09375 18.609375 -4.09375 C 18.4375 -4.09375 18.09375 -4.09375 17.6875 -4.09375 L 17.6875 -8.015625 L 15.5 -8.015625 L 15.5 -9.3125 L 18.234375 -9.3125 L 18.234375 -10.984375 L 15.5 -10.984375 L 15.5 -12.1875 L 18.953125 -12.1875 Z M 15.78125 -5.28125 L 13.28125 -5.28125 L 13.28125 -6.484375 L 15.78125 -6.484375 Z M 9.875 -15.796875 C 10.109375 -15.359375 10.328125 -14.78125 10.46875 -14.28125 L 7.734375 -14.28125 L 7.734375 -2.046875 L 10.21875 -2.046875 L 10.21875 -12.1875 L 13.53125 -12.1875 L 13.53125 -10.984375 L 10.828125 -10.984375 L 10.828125 -9.3125 L 13.53125 -9.3125 L 13.53125 -8.015625 L 11.40625 -8.015625 L 11.40625 -3.015625 L 13.28125 -3.015625 L 13.28125 -3.734375 L 16.890625 -3.734375 C 17.140625 -3.15625 17.375 -2.4375 17.453125 -1.90625 C 18.8125 -1.90625 19.8125 -1.921875 20.546875 -2.296875 C 21.296875 -2.671875 21.484375 -3.296875 21.484375 -4.421875 L 21.484375 -14.28125 L 18.421875 -14.28125 C 18.671875 -14.765625 18.953125 -15.296875 19.25 -15.890625 L 21.984375 -15.890625 L 21.984375 -18.03125 L 15.75 -18.03125 C 15.4375 -18.671875 14.96875 -19.375 14.53125 -19.921875 L 12.34375 -19.109375 C 12.578125 -18.796875 12.8125 -18.421875 13.046875 -18.03125 L 7.140625 -18.03125 L 7.140625 -15.890625 L 10.234375 -15.890625 Z M 6.671875 -15.484375 C 5.984375 -16.5625 4.421875 -18.03125 3.15625 -19.046875 L 1.046875 -17.46875 C 2.296875 -16.40625 3.78125 -14.828125 4.40625 -13.765625 Z M 6.15625 -10.640625 L 0.921875 -10.640625 L 0.921875 -8.09375 L 3.515625 -8.09375 L 3.515625 -3.0625 C 2.640625 -2.59375 1.6875 -1.78125 0.734375 -0.6875 L 2.53125 1.859375 C 3.25 0.46875 4.140625 -1.09375 4.765625 -1.09375 C 5.265625 -1.09375 6.046875 -0.328125 7.109375 0.25 C 8.828125 1.1875 10.828125 1.453125 13.8125 1.453125 C 16.203125 1.453125 20.203125 1.328125 21.875 1.203125 C 21.921875 0.46875 22.34375 -0.828125 22.640625 -1.546875 C 20.296875 -1.203125 16.5 -0.96875 13.921875 -0.96875 C 11.28125 -0.96875 9.125 -1.140625 7.53125 -2.046875 C 6.96875 -2.34375 6.53125 -2.640625 6.15625 -2.890625 Z M 6.15625 -10.640625 "/></g></g></g><g fill="#ffffff" fill-opacity="1"><g transform="translate(136.59775, 90.222396)"><g><path d="M 4.265625 -2.796875 L 4.265625 -7.34375 L 7.953125 -7.34375 L 7.953125 -2.796875 Z M 7.953125 -9.734375 L 4.265625 -9.734375 L 4.265625 -13.484375 L 7.953125 -13.484375 Z M 15.296875 -16.0625 C 15.640625 -17.03125 15.96875 -18 16.203125 -19 L 13.578125 -19.609375 C 12.90625 -16.890625 11.796875 -14.09375 10.453125 -12.140625 L 10.453125 -15.890625 L 6.859375 -15.890625 C 7.25 -16.890625 7.671875 -18.046875 8.0625 -19.203125 L 5.046875 -19.625 C 4.953125 -18.53125 4.6875 -17.046875 4.375 -15.890625 L 1.765625 -15.890625 L 1.765625 1.328125 L 4.265625 1.328125 L 4.265625 -0.375 L 10.453125 -0.375 L 10.453125 -11.1875 C 11.078125 -10.78125 11.859375 -10.234375 12.234375 -9.890625 C 12.953125 -10.890625 13.671875 -12.171875 14.28125 -13.5625 L 19.234375 -13.5625 C 18.984375 -5.375 18.671875 -1.90625 18 -1.15625 C 17.703125 -0.859375 17.453125 -0.765625 16.984375 -0.765625 C 16.375 -0.765625 15.015625 -0.765625 13.53125 -0.90625 C 14.015625 -0.140625 14.390625 1.015625 14.4375 1.78125 C 15.796875 1.828125 17.1875 1.859375 18.078125 1.734375 C 19 1.578125 19.65625 1.328125 20.296875 0.46875 C 21.25 -0.765625 21.5 -4.453125 21.8125 -14.8125 C 21.828125 -15.125 21.828125 -16.0625 21.828125 -16.0625 Z M 17.984375 -5.484375 C 17.265625 -6.828125 15.734375 -9.03125 14.578125 -10.640625 L 12.421875 -9.40625 C 13.5625 -7.71875 15 -5.453125 15.640625 -4.0625 Z M 17.984375 -5.484375 "/></g></g></g><g fill="#ffffff" fill-opacity="1"><g transform="translate(159.762843, 90.222396)"><g><path d="M 18.28125 -16.03125 L 12.296875 -16.03125 L 12.296875 -17.140625 L 18.28125 -17.140625 Z M 18.28125 -13.109375 L 12.296875 -13.109375 L 12.296875 -14.234375 L 18.28125 -14.234375 Z M 20.828125 -19.046875 L 9.875 -19.046875 L 9.875 -11.21875 L 20.828125 -11.21875 Z M 22.40625 -8.015625 L 22.40625 -10.328125 L 7.828125 -10.328125 L 7.828125 -8.015625 L 10.453125 -8.015625 C 9.875 -7.109375 9.15625 -6.28125 8.3125 -5.5625 L 7.828125 -7.53125 L 5.984375 -6.71875 L 5.984375 -12.1875 L 8.15625 -12.1875 L 8.15625 -14.78125 L 5.984375 -14.78125 L 5.984375 -19.34375 L 3.421875 -19.34375 L 3.421875 -14.78125 L 1.109375 -14.78125 L 1.109375 -12.1875 L 3.421875 -12.1875 L 3.421875 -5.65625 C 2.34375 -5.21875 1.359375 -4.8125 0.578125 -4.515625 L 1.59375 -1.734375 C 3.015625 -2.4375 4.6875 -3.265625 6.34375 -4.09375 C 6.921875 -3.734375 7.8125 -2.921875 8.15625 -2.484375 C 9.109375 -3.078125 10.015625 -3.875 10.84375 -4.75 L 12.234375 -4.75 C 11 -3.03125 9.21875 -1.40625 7.5 -0.5625 C 8.15625 -0.15625 8.875 0.53125 9.3125 1.0625 C 11.328125 -0.203125 13.484375 -2.53125 14.734375 -4.75 L 16.109375 -4.75 C 15.109375 -2.59375 13.5625 -0.53125 11.796875 0.578125 C 12.484375 0.953125 13.28125 1.578125 13.734375 2.109375 C 15.625 0.65625 17.421875 -2.15625 18.375 -4.75 L 19.28125 -4.75 C 19.03125 -1.953125 18.75 -0.765625 18.421875 -0.421875 C 18.234375 -0.203125 18.046875 -0.15625 17.71875 -0.15625 C 17.421875 -0.15625 16.828125 -0.15625 16.078125 -0.234375 C 16.421875 0.34375 16.65625 1.28125 16.703125 1.921875 C 17.640625 1.96875 18.515625 1.953125 19.046875 1.875 C 19.625 1.8125 20.140625 1.625 20.578125 1.09375 C 21.203125 0.421875 21.578125 -1.4375 21.890625 -5.953125 C 21.921875 -6.28125 21.9375 -6.90625 21.9375 -6.90625 L 12.53125 -6.90625 C 12.765625 -7.28125 13 -7.640625 13.1875 -8.015625 Z M 22.40625 -8.015625 "/></g></g></g><g fill="#ffffff" fill-opacity="1"><g transform="translate(20.772284, 121.833479)"><g><path d="M 6.125 -11.671875 L 8.453125 -11.671875 L 8.453125 -14.296875 L 6.125 -14.296875 L 6.125 -19.328125 L 3.546875 -19.328125 L 3.546875 -14.296875 L 0.828125 -14.296875 L 0.828125 -11.671875 L 3.546875 -11.671875 L 3.546875 -5.171875 C 2.390625 -4.703125 1.359375 -4.3125 0.53125 -4.015625 L 1.640625 -1.234375 C 3.78125 -2.21875 6.421875 -3.453125 8.875 -4.6875 L 8.25 -7.109375 C 7.546875 -6.8125 6.828125 -6.515625 6.125 -6.203125 Z M 14.015625 -0.875 C 12.609375 -0.875 12.390625 -1.09375 12.390625 -2.453125 L 12.390625 -9.59375 L 14.3125 -10.421875 L 14.3125 -3.359375 L 16.890625 -3.359375 L 16.890625 -11.546875 L 18.890625 -12.421875 C 18.890625 -9.125 18.859375 -7.4375 18.8125 -7.0625 C 18.71875 -6.65625 18.578125 -6.5625 18.3125 -6.5625 C 18.09375 -6.5625 17.59375 -6.5625 17.1875 -6.609375 C 17.5 -6.03125 17.703125 -4.984375 17.765625 -4.28125 C 18.515625 -4.28125 19.515625 -4.3125 20.1875 -4.609375 C 20.875 -4.90625 21.296875 -5.46875 21.359375 -6.53125 C 21.484375 -7.484375 21.53125 -10.265625 21.53125 -14.671875 L 21.625 -15.125 L 19.703125 -15.796875 L 19.203125 -15.484375 L 18.71875 -15.15625 L 16.890625 -14.359375 L 16.890625 -19.65625 L 14.3125 -19.65625 L 14.3125 -13.25 L 12.390625 -12.4375 L 12.390625 -17.40625 L 9.75 -17.40625 L 9.75 -11.3125 L 7.484375 -10.359375 L 8.5 -7.90625 L 9.75 -8.4375 L 9.75 -2.484375 C 9.75 0.71875 10.65625 1.578125 13.78125 1.578125 L 18.71875 1.578125 C 21.4375 1.578125 22.25 0.46875 22.609375 -2.78125 C 21.84375 -2.921875 20.78125 -3.359375 20.203125 -3.78125 C 20 -1.40625 19.765625 -0.875 18.484375 -0.875 Z M 14.015625 -0.875 "/></g></g></g><g fill="#ffffff" fill-opacity="1"><g transform="translate(43.937377, 121.833479)"><g><path d="M 5.703125 -15.03125 L 5.703125 -6.90625 L 3.9375 -6.90625 L 3.9375 -15.03125 Z M 8.15625 -4.359375 L 8.15625 -17.59375 L 1.5 -17.59375 L 1.5 -2.453125 L 3.9375 -2.453125 L 3.9375 -4.359375 Z M 9.03125 1.28125 C 10.015625 -0.09375 10.46875 -2.34375 10.75 -4.3125 L 8.71875 -4.890625 C 8.484375 -3.03125 7.953125 -0.96875 7.0625 0.328125 Z M 11.265625 -4.421875 C 11.59375 -2.921875 11.765625 -0.96875 11.671875 0.296875 L 13.578125 0 C 13.625 -1.28125 13.4375 -3.21875 13.046875 -4.734375 Z M 13.8125 -4.609375 C 14.3125 -3.34375 14.765625 -1.625 14.859375 -0.515625 L 16.609375 -1.0625 C 16.46875 -2.125 16.015625 -3.796875 15.453125 -5.078125 Z M 19.15625 -2.296875 C 18.9375 -3.15625 18.40625 -4.46875 17.796875 -5.453125 L 16.34375 -4.9375 C 16.875 -3.9375 17.375 -2.59375 17.5625 -1.6875 Z M 12.046875 -9.390625 L 14.546875 -9.390625 L 14.546875 -8 L 12.046875 -8 Z M 14.546875 -16.34375 L 14.546875 -15.015625 L 12.046875 -15.015625 L 12.046875 -16.34375 Z M 14.546875 -11.515625 L 12.046875 -11.515625 L 12.046875 -12.859375 L 14.546875 -12.859375 Z M 17.078125 -8 L 17.078125 -9.390625 L 20.8125 -9.390625 L 20.8125 -11.515625 L 17.078125 -11.515625 L 17.078125 -12.859375 L 20.8125 -12.859375 L 20.8125 -15.015625 L 17.078125 -15.015625 L 17.078125 -16.34375 L 21.453125 -16.34375 L 21.453125 -18.71875 L 9.453125 -18.71875 L 9.453125 -5.703125 L 19.515625 -5.703125 C 19.34375 -2.265625 19.140625 -0.921875 18.84375 -0.5625 C 18.65625 -0.328125 18.4375 -0.28125 18.140625 -0.28125 C 17.796875 -0.28125 17.171875 -0.28125 16.40625 -0.375 C 16.78125 0.28125 17.03125 1.25 17.046875 2 C 18.03125 2.015625 18.9375 2 19.46875 1.90625 C 20.0625 1.8125 20.53125 1.625 20.96875 1.0625 C 21.546875 0.328125 21.828125 -1.78125 22.03125 -7 C 22.0625 -7.328125 22.078125 -8 22.078125 -8 Z M 17.078125 -8 "/></g></g></g><g fill="#ffffff" fill-opacity="1"><g transform="translate(67.10247, 121.833479)"><g><path d="M 4.03125 -5.953125 L 7.015625 -5.953125 C 6.671875 -9.25 10.90625 -9.65625 10.90625 -13.15625 C 10.90625 -16.109375 8.8125 -17.609375 5.90625 -17.609375 C 3.78125 -17.609375 2.046875 -16.640625 0.734375 -15.15625 L 2.640625 -13.390625 C 3.515625 -14.359375 4.421875 -14.859375 5.53125 -14.859375 C 6.859375 -14.859375 7.640625 -14.109375 7.640625 -12.859375 C 7.640625 -10.546875 3.515625 -9.6875 4.03125 -5.953125 Z M 3.125 -2.078125 C 3.125 -0.734375 4.140625 0.203125 5.53125 0.203125 C 6.921875 0.203125 7.953125 -0.734375 7.953125 -2.078125 C 7.953125 -3.421875 6.921875 -4.359375 5.53125 -4.359375 C 4.140625 -4.359375 3.125 -3.421875 3.125 -2.078125 Z M 3.125 -2.078125 "/></g></g></g></svg>